<svg width="110" height="60" viewBox="0 0 110 60" fill="none" xmlns="http://www.w3.org/2000/svg">
<path fill-rule="evenodd" clip-rule="evenodd" d="M38.0922 39.2727C42.9011 39.2727 46.8195 35.5701 46.8195 30.5454C46.8195 25.4853 42.9011 21.8181 38.0922 21.8181C33.2834 21.8181 29.3649 25.4853 29.3649 30.5454C29.3649 35.5701 33.2834 39.2727 38.0922 39.2727ZM38.0916 25.2565C40.7275 25.2565 42.9985 27.4049 42.9985 30.5448C42.9985 33.6494 40.7275 35.8332 38.0916 35.8332C35.4558 35.8332 33.1847 33.6533 33.1847 30.5448C33.1847 27.4049 35.4558 25.2565 38.0916 25.2565Z" fill="#EA4335"/>
<path fill-rule="evenodd" clip-rule="evenodd" d="M57.7273 39.2727C62.5362 39.2727 66.4546 35.5701 66.4546 30.5454C66.4546 25.4853 62.5362 21.8181 57.7273 21.8181C52.9185 21.8181 49 25.4892 49 30.5454C49 35.5701 52.9185 39.2727 57.7273 39.2727ZM57.7267 25.2565C60.3626 25.2565 62.6336 27.4049 62.6336 30.5448C62.6336 33.6494 60.3626 35.8332 57.7267 35.8332C55.0909 35.8332 52.8198 33.6533 52.8198 30.5448C52.8198 27.4049 55.0909 25.2565 57.7267 25.2565Z" fill="#FBBC05"/>
<path fill-rule="evenodd" clip-rule="evenodd" d="M85.0003 38.5961V22.3684H81.2031V23.8399H81.0635C80.1645 22.776 78.4404 21.8181 76.2689 21.8181C71.7164 21.8181 67.5457 25.7884 67.5457 30.8919C67.5457 35.9587 71.7164 39.8964 76.2689 39.8964C78.4445 39.8964 80.1686 38.9385 81.0635 37.8419H81.2031V39.1423C81.2031 42.603 79.3435 44.4414 76.3427 44.4414C73.8961 44.4414 72.3773 42.7049 71.7574 41.2334L68.2764 42.6723C69.278 45.0692 71.9339 48 76.3469 48C81.0348 48 85.0003 45.273 85.0003 38.5961ZM76.6262 25.3806C79.3479 25.3806 81.4866 27.7082 81.4866 30.8918C81.4866 34.0427 79.3479 36.3377 76.6262 36.3377C73.8676 36.3377 71.5565 34.0427 71.5565 30.8918C71.5565 27.7082 73.8676 25.3806 76.6262 25.3806Z" fill="#4285F4"/>
<path d="M90.4552 13.0906V39.2725H87.1824V13.0906H90.4552Z" fill="#34A853"/>
<path fill-rule="evenodd" clip-rule="evenodd" d="M108.833 35.4048L105.809 33.4217C104.801 34.8776 103.425 35.8377 101.441 35.8377C99.461 35.8377 98.049 34.9445 97.141 33.1935L109.001 28.3616L108.597 27.3701C107.861 25.4223 105.609 21.8181 101.005 21.8181C96.433 21.8181 92.6371 25.3555 92.6371 30.5454C92.6371 35.4403 96.401 39.2727 101.441 39.2727C105.505 39.2727 107.857 36.8253 108.833 35.4048ZM104.43 27.0436L96.5021 30.2819C96.4021 26.9138 99.1581 25.1943 101.138 25.1943C102.682 25.1943 103.994 25.9537 104.43 27.0436Z" fill="#EA4335"/>
<path d="M15.1952 28.2101V24.4842H28.0818C28.2078 25.1336 28.2728 25.9017 28.2728 26.7332C28.2728 29.5286 27.4885 32.9852 24.9608 35.448C22.5021 37.9425 19.3607 39.2728 15.1993 39.2728C7.48599 39.2728 1 33.1515 1 25.6364C1 18.1213 7.48599 12 15.1993 12C19.4664 12 22.5062 13.6313 24.7901 15.7575L22.0916 18.3866C20.4539 16.8899 18.235 15.7259 15.1952 15.7259C9.56264 15.7259 5.15737 20.1486 5.15737 25.6364C5.15737 31.1242 9.56264 35.547 15.1952 35.547C18.8487 35.547 20.9294 34.1176 22.2623 32.8189C23.3433 31.7657 24.0545 30.2611 24.3349 28.2061L15.1952 28.2101Z" fill="#4285F4"/>
</svg>
