<svg width="91" height="60" viewBox="0 0 91 60" fill="none" xmlns="http://www.w3.org/2000/svg">
<path d="M12.883 13.1575C5.915 13.1575 0 18.1951 0 25.9423C0 32.9134 5.265 38.4377 12.805 38.4377C19.76 38.4377 25.688 33.4001 25.688 25.6529C25.688 18.6949 20.423 13.1575 12.883 13.1575ZM12.883 36.9383C8.346 36.9383 5.096 32.2426 5.096 25.7713C5.096 19.5762 8.177 14.6701 12.818 14.6701C17.355 14.6701 20.605 19.3657 20.605 25.837C20.592 32.0322 17.511 36.9383 12.883 36.9383ZM85.085 22.7461V23.7983L86.476 24.0745C86.957 24.1798 87.1 24.5612 86.788 25.3372L83.59 33.1239C83.447 33.4395 83.278 33.4395 83.174 33.1239L80.197 25.3504C79.885 24.548 80.054 24.1929 80.548 24.0877L81.926 23.8115V22.7592H69.602V23.8115L70.993 24.0877C71.474 24.1929 71.656 24.5744 71.344 25.3504L68.263 33.5448C68.12 33.8604 67.951 33.8604 67.847 33.5448L64.727 25.3504C64.454 24.548 64.584 24.1929 65.078 24.0877L66.456 23.8115V22.7592H58.63V23.8378L59.397 24.0088C59.917 24.114 60.229 24.3902 60.437 24.89L65.728 38.0563H68.12L73.411 24.89C73.684 24.1929 73.996 23.9035 74.555 23.9035H74.763C75.218 23.9035 75.556 24.0745 75.842 24.7453L81.38 38.4114L79.898 41.989C78.923 44.3697 78.208 44.7906 77.298 44.7906C76.921 44.7906 76.505 44.7249 76.089 44.7249C75.01 44.7249 74.36 45.5009 74.36 46.3296C74.36 47.2766 75.127 47.9474 76.336 47.9474C78.065 47.9474 79.768 46.54 81.185 43.186L88.725 25.2846C89.076 24.4823 89.518 24.1271 90.246 23.9825L91 23.8378V22.7461H85.085ZM36.556 36.6883L30.771 37.4249C28.873 37.6748 28.275 37.0435 28.275 36.057C28.275 34.8995 29.523 33.992 33.852 33.992H33.917C37.063 33.992 40.768 32.0716 40.768 27.9021C40.768 26.5736 40.287 25.3504 39.377 24.3639C39.0636 23.6862 38.9207 22.9407 38.961 22.1936C38.961 19.1158 41.041 17.3665 43.186 17.3665C44.083 17.3665 44.369 17.5111 44.369 18.1425C44.369 18.3135 44.33 18.4582 44.33 18.6686C44.33 19.7603 45.227 20.7731 46.514 20.7731C47.827 20.7731 48.659 19.7209 48.659 18.5634C48.659 16.814 47.099 15.5119 44.226 15.5119C40.274 15.5119 37.232 18.103 37.232 22.0621C37.232 22.3778 37.271 22.6277 37.271 22.8644C36.2481 22.4407 35.1523 22.2262 34.047 22.2331C30.927 22.2331 27.196 24.1535 27.196 28.323C27.196 30.2433 28.275 32.0322 30.134 33.0844C27.365 33.4658 25.779 34.9784 25.779 37.3197C25.779 39.7004 27.651 41.4235 31.148 41.0026L36.205 40.3712C38.727 40.0555 39.559 40.9631 39.559 42.2916C39.559 44.6065 37.414 46.4611 33.982 46.4611C31.252 46.4611 30.238 45.4746 30.238 44.0804L30.277 43.3833C30.277 42.5415 29.757 41.9496 28.925 41.9101C27.95 41.9101 27.365 42.6072 27.365 43.62C27.365 45.935 29.549 48 34.008 48C39.026 48 42.211 44.7117 42.211 40.9236C42.224 37.9116 39.845 36.2674 36.556 36.6883ZM33.956 23.4826C35.581 23.4826 36.894 25.3372 36.894 28.1783C36.894 30.6248 35.789 32.7293 34.06 32.7293C32.396 32.7293 31.083 30.8747 31.083 28.0336C31.083 25.6266 32.188 23.4826 33.956 23.4826Z" fill="#EB3F43"/>
<path d="M57.291 36.2411V12L51.194 13.5784V14.3149L52.923 14.8805C53.196 14.9858 53.3 15.1962 53.3 15.4724V36.1359C53.3 36.5174 52.988 36.8067 52.533 36.8067L50.986 36.833L49.348 36.8067C48.893 36.8067 48.581 36.5305 48.581 36.1359V22.1542L42.484 23.7326V24.4691L44.213 25.0347C44.486 25.1399 44.59 25.3504 44.59 25.6266V36.2411C44.59 36.5568 44.421 36.7278 44.174 36.7673L42.757 36.9383V38.0563H59.371V36.9383L57.681 36.7673C57.46 36.7278 57.291 36.5568 57.291 36.2411Z" fill="#EB3F43"/>
</svg>
