<svg width="150" height="60" viewBox="0 0 150 60" fill="none" xmlns="http://www.w3.org/2000/svg">
<g clip-path="url(#clip0_1273:6605)">
<path d="M7.45063 23.3169C9.51702 23.3169 11.2778 24.0566 12.7326 25.5344C14.1873 26.9941 14.9151 28.7785 14.9151 30.8876V37.8506H9.25758V31.0005C9.25758 30.1909 9.08137 29.4986 8.72954 28.9243C8.37697 28.3504 7.95092 28.0626 7.45063 28.0626C6.95919 28.0626 6.53779 28.3504 6.18551 28.9243C5.83324 29.4986 5.65718 30.1909 5.65718 31.0005V37.8509H0V30.8876C0 28.7785 0.727487 26.9942 2.18246 25.5344C3.62799 24.0564 5.38394 23.3169 7.45063 23.3169Z" fill="#F57C14"/>
<path d="M20.3612 22.173C19.7588 22.7757 19.4484 23.2231 19.4299 23.5151V23.5433C19.4299 23.8448 19.694 24.2592 20.2222 24.7864L20.8477 25.4222C21.4036 25.9966 21.6817 26.684 21.6817 27.4841V37.8513H15.9687V27.4837C15.9687 26.6738 16.2468 25.9864 16.8027 25.4215L17.4423 24.7861C17.961 24.2589 18.2209 23.8395 18.2209 23.5288V23.5006C18.1929 23.2179 17.8824 22.7756 17.2893 22.1729L16.6082 21.4664C15.9873 20.845 15.6769 20.0919 15.6769 19.2064C15.6769 18.3215 15.9873 17.5727 16.6082 16.9606C17.2104 16.3297 17.9472 16.0142 18.8185 16.0142C19.6988 16.0142 20.44 16.325 21.0425 16.9467C21.6632 17.5682 21.9738 18.3214 21.9738 19.2064C21.9738 20.1011 21.6632 20.8543 21.0425 21.4664L20.3612 22.173V22.173Z" fill="#F57C14"/>
<path d="M31.1399 33.3305C31.3901 32.85 31.552 32.2854 31.6266 31.6356H37.2699C37.1123 33.4527 36.3988 34.9969 35.1293 36.2682V36.2827C33.6835 37.7605 31.9413 38.4999 29.9028 38.4999H29.8334C27.7853 38.4999 26.0387 37.7605 24.593 36.2827V36.2682C23.1382 34.809 22.4105 33.0385 22.4105 30.9577V30.8868C22.4105 28.806 23.1379 27.0355 24.593 25.5763C26.0385 24.0982 27.7948 23.3586 29.8611 23.3586C31.9184 23.3586 33.6743 24.0982 35.1295 25.5763C36.3989 26.8571 37.1123 28.401 37.2701 30.2089H31.6264C31.552 29.5591 31.3901 28.9942 31.1398 28.5141C30.7783 27.8549 30.352 27.5254 29.8608 27.5254C29.3697 27.5254 28.948 27.855 28.596 28.5141C28.2438 29.1829 28.0677 29.9876 28.0677 30.9293C28.0677 31.8615 28.2438 32.6618 28.596 33.3308C28.948 33.9897 29.3697 34.3243 29.8608 34.3334C30.3521 34.3241 30.7785 33.9895 31.1399 33.3305Z" fill="#F57C14"/>
<path d="M49.1266 31.5234L51.9902 35.9725C52.231 36.3397 52.3516 36.6695 52.3516 36.9612C52.3516 37.0837 52.333 37.1967 52.296 37.3002C52.1661 37.6674 51.8881 37.8511 51.4619 37.8511H46.7915L43.8445 33.2608V37.837H38.1871V26.1843C38.1871 25.3931 38.4652 24.7153 39.0212 24.15C39.5679 23.5946 40.2306 23.3166 41.0089 23.3166C41.7965 23.3166 42.4637 23.5946 43.0105 24.15C43.5666 24.7153 43.8446 25.393 43.8446 26.1843V29.2919L46.4025 24.6448C46.8008 23.9572 47.3799 23.5149 48.1398 23.3168C48.3903 23.2511 48.6356 23.218 48.8764 23.218C49.3677 23.218 49.8356 23.3501 50.2806 23.6135C50.9568 24.0278 51.3924 24.6212 51.5871 25.393C51.6517 25.638 51.6843 25.8829 51.6843 26.1275C51.6843 26.6267 51.5499 27.1021 51.2812 27.5541L49.1266 31.5234Z" fill="#F57C14"/>
<path d="M58.9586 23.3586C60.9881 23.3586 62.7395 24.1122 64.213 25.6185C65.2141 26.6356 65.8118 27.9585 66.0062 29.5875C66.0525 29.9829 66.0756 30.3501 66.0756 30.6893C66.0756 31.0659 66.0479 31.4049 65.9924 31.7064H57.2213C57.2955 32.2993 57.4528 32.8175 57.694 33.2604C58.0462 33.9193 58.4677 34.2534 58.9591 34.2632C59.4594 34.2632 59.9273 33.9667 60.3629 33.3731C60.576 33.0722 60.7425 32.7707 60.8629 32.4693H65.9088C65.8531 33.7687 65.3061 35.0211 64.2684 36.2265C62.7951 37.7331 61.0388 38.4866 59.0006 38.4866C56.9153 38.4866 55.1453 37.747 53.6903 36.2689C52.2356 34.7999 51.5083 33.0159 51.5083 30.9159C51.5083 28.8254 52.2356 27.0413 53.6903 25.5632C55.1453 24.093 56.9015 23.3586 58.9586 23.3586V23.3586ZM60.5991 29.5734C60.497 29.0928 60.3767 28.7257 60.2376 28.4714C59.8668 27.7938 59.4406 27.4544 58.9588 27.4544C58.4213 27.4544 57.9996 27.7843 57.6938 28.4431C57.5365 28.7821 57.4111 29.159 57.3185 29.573L60.5991 29.5734Z" fill="#F57C14"/>
<path d="M69.5293 16.0005C70.3166 16.0005 70.9838 16.283 71.5309 16.848C72.087 17.4036 72.365 18.0817 72.365 18.8824V37.851H66.7074V18.8821C66.7074 18.0817 66.9806 17.4036 67.5276 16.8479C68.0838 16.283 68.7508 16.0005 69.5293 16.0005V16.0005Z" fill="#F57C14"/>
<path d="M85.8705 25.5478C87.3252 27.0263 88.0528 28.811 88.0528 30.901C88.0528 33.0007 87.3252 34.7901 85.8705 36.2681C85.8236 36.3156 85.736 36.4 85.6061 36.5226C85.4952 36.6262 85.4398 36.6829 85.4398 36.6917C84.0403 37.8878 82.4325 38.486 80.6163 38.486H80.5469C78.7398 38.486 77.1413 37.8829 75.7514 36.678C75.6586 36.6214 75.5104 36.4851 75.3065 36.2684C73.8518 34.7903 73.1241 33.001 73.1241 30.9011C73.1241 28.8109 73.8518 27.0266 75.3065 25.5481C76.7613 24.0605 78.5216 23.3164 80.5889 23.3164C82.6549 23.3163 84.4157 24.0602 85.8705 25.5478V25.5478ZM81.8534 33.3164C82.2143 32.6479 82.3955 31.8432 82.3955 30.9011C82.3955 29.969 82.2143 29.1685 81.8534 28.4999C81.5007 27.8312 81.0797 27.497 80.5884 27.497C80.097 27.497 79.6711 27.8312 79.3096 28.4999C78.9668 29.178 78.7951 29.9781 78.7951 30.9011C78.7951 31.8333 78.9668 32.6383 79.3096 33.3164C79.6711 33.9855 80.097 34.3192 80.5884 34.3192C81.0797 34.3192 81.501 33.9849 81.8534 33.3164Z" fill="#F57C14"/>
<path d="M101.378 36.2825C99.9325 37.7605 98.1761 38.5 96.11 38.5C94.0436 38.5 92.2877 37.7605 90.8421 36.2825C89.3873 34.8043 88.6597 33.0194 88.6597 30.9293C88.6597 28.8392 89.3873 27.0548 90.8421 25.5764C92.2878 24.0983 94.0436 23.3587 96.11 23.3587C96.7213 23.3587 97.3192 23.4346 97.9033 23.5852V18.8813C97.9033 18.0809 98.1812 17.4031 98.7373 16.8471C99.2932 16.2825 99.9602 16 100.739 16C101.518 16 102.184 16.2825 102.741 16.8473C103.287 17.4031 103.565 18.0762 103.575 18.8671V30.9291C103.574 33.0197 102.842 34.8041 101.378 36.2825V36.2825ZM96.11 34.3334C96.601 34.3334 97.0227 33.9995 97.375 33.3306C97.7269 32.6716 97.9033 31.8665 97.9033 30.9151C97.9033 29.9737 97.7268 29.1732 97.375 28.514C97.0223 27.8454 96.6011 27.5112 96.11 27.5112C95.6094 27.5112 95.188 27.8454 94.8452 28.514C94.4926 29.1732 94.3169 29.9735 94.3169 30.9151C94.3169 31.8567 94.4928 32.6617 94.8452 33.3306C95.188 33.9991 95.6096 34.3334 96.11 34.3334Z" fill="#F57C14"/>
<path d="M111.672 23.3586C113.701 23.3586 115.452 24.1122 116.926 25.6185C117.927 26.6356 118.524 27.9585 118.719 29.5875C118.765 29.9829 118.788 30.3501 118.788 30.6893C118.788 31.0659 118.761 31.4049 118.705 31.7064H109.934C110.008 32.2993 110.165 32.8175 110.407 33.2604C110.759 33.9193 111.18 34.2534 111.672 34.2632C112.172 34.2632 112.64 33.9667 113.076 33.3731C113.288 33.0722 113.455 32.7707 113.575 32.4693H118.622C118.566 33.7687 118.019 35.0211 116.981 36.2265C115.508 37.7331 113.751 38.4866 111.713 38.4866C109.628 38.4866 107.858 37.747 106.403 36.2689C104.948 34.7999 104.221 33.0159 104.221 30.9159C104.221 28.8254 104.948 27.0413 106.403 25.5632C107.858 24.093 109.614 23.3586 111.672 23.3586V23.3586ZM113.312 29.5734C113.21 29.0928 113.089 28.7257 112.95 28.4714C112.579 27.7938 112.153 27.4544 111.672 27.4544C111.134 27.4544 110.712 27.7843 110.407 28.4431C110.249 28.7821 110.124 29.159 110.031 29.573L113.312 29.5734Z" fill="#F57C14"/>
<path d="M132.241 25.5478C133.696 27.0263 134.424 28.811 134.424 30.901C134.424 33.0007 133.696 34.7901 132.241 36.2681C132.195 36.3156 132.107 36.4 131.977 36.5226C131.865 36.6262 131.81 36.6829 131.81 36.6917C130.411 37.8878 128.802 38.486 126.987 38.486H126.918C125.111 38.486 123.512 37.8829 122.122 36.678C122.029 36.6214 121.881 36.4851 121.677 36.2684C120.222 34.7903 119.495 33.001 119.495 30.9011C119.495 28.8109 120.222 27.0266 121.677 25.5481C123.131 24.0605 124.893 23.3164 126.959 23.3164C129.026 23.3163 130.786 24.0602 132.241 25.5478V25.5478ZM128.224 33.3164C128.585 32.6479 128.766 31.8432 128.766 30.9011C128.766 29.969 128.585 29.1685 128.224 28.4999C127.872 27.8312 127.45 27.497 126.959 27.497C126.468 27.497 126.041 27.8312 125.68 28.4999C125.337 29.178 125.166 29.9781 125.166 30.9011C125.166 31.8333 125.337 32.6383 125.68 33.3164C126.041 33.9855 126.468 34.3192 126.959 34.3192C127.45 34.3192 127.872 33.9849 128.224 33.3164Z" fill="#F57C14"/>
<path d="M142.536 23.3169C144.602 23.3169 146.363 24.0566 147.817 25.5344C149.272 26.9941 150 28.7785 150 30.8876V37.8506H144.343V31.0005C144.343 30.1909 144.166 29.4986 143.814 28.9243C143.462 28.3504 143.036 28.0626 142.536 28.0626C142.044 28.0626 141.623 28.3504 141.271 28.9243C140.918 29.4986 140.743 30.1909 140.743 31.0005V37.8509H135.085V30.8876C135.085 28.7785 135.813 26.9939 137.268 25.5344C138.713 24.0564 140.469 23.3169 142.536 23.3169V23.3169Z" fill="#F57C14"/>
</g>
<defs>
<clipPath id="clip0_1273:6605">
<rect width="150" height="22.5" fill="white" transform="translate(0 16)"/>
</clipPath>
</defs>
</svg>
