<svg width="60" height="60" viewBox="0 0 60 60" fill="none" xmlns="http://www.w3.org/2000/svg">
<g clip-path="url(#clip0)">
<path fill-rule="evenodd" clip-rule="evenodd" d="M0 8.73295H9.01125V32.917C9.01125 36.7443 10.7619 39.0241 12.1463 40.0013C10.6807 41.3042 6.20205 42.4442 2.86345 39.6755C0.895128 38.0435 0 35.3599 0 32.8355V8.73295ZM56.3167 28.8221V26.2806H59.0651V17.3644H56.0469C54.8883 12.0113 50.1225 8 44.4228 8C37.8569 8 32.5343 13.3228 32.5343 19.8885V40.7106C34.4049 40.9735 36.6335 40.6779 38.5295 39.1056C40.4976 37.4733 41.3927 34.79 41.3927 32.2656V31.4985H45.8932V22.5823H41.3927V19.8885H41.4035C41.4035 18.2211 42.7552 16.8695 44.4228 16.8695C46.0902 16.8695 47.4473 18.2211 47.4473 19.8885V28.8221C47.4473 35.3878 52.7755 40.7106 59.3412 40.7106V31.8411C57.6738 31.8411 56.3167 30.4895 56.3167 28.8221ZM22.1879 17.3644V30.4499C22.1879 31.1927 21.5715 31.795 20.811 31.795C20.0505 31.795 19.4341 31.1927 19.4341 30.4499V17.3644H10.5176V32.7543C10.5176 35.5227 11.4565 39.0241 15.7292 40.1641C20.0064 41.3054 22.4877 38.9428 22.4877 38.9428C22.2616 40.4993 20.7957 41.6393 18.4344 41.8836C16.6477 42.0683 14.3628 41.4765 13.2231 40.9879V49.1415C16.1273 49.9979 19.1991 50.2746 22.2053 49.6913C27.6609 48.6328 31.1041 44.0729 31.1041 38.0063V17.3644H22.1879Z" fill="#EA0B8C"/>
</g>
<defs>
<clipPath id="clip0">
<rect width="60" height="60" fill="white"/>
</clipPath>
</defs>
</svg>
