<svg width="120" height="60" viewBox="0 0 120 60" fill="none" xmlns="http://www.w3.org/2000/svg">
<g clip-path="url(#clip0)">
<path fill-rule="evenodd" clip-rule="evenodd" d="M12.9135 21.1036V24.6349C11.2298 24.0237 9.4113 23.6842 7.99695 23.6842C6.17849 23.6842 5.23559 24.2275 5.23559 25.2462C5.23559 25.8574 5.63969 26.2648 6.91934 26.876L10.2869 28.3701C12.9809 29.5925 14.3279 31.3582 14.3279 33.6672C14.3279 37.2665 11.2298 39.5076 6.38054 39.5076C4.62944 39.5076 2.54158 39.2359 0.386373 38.7605V35.0933C2.54158 35.7045 4.49473 36.0441 6.04379 36.0441C8.0643 36.0441 9.1419 35.5008 9.1419 34.4142C9.1419 33.803 8.7378 33.3276 7.72754 32.8522L4.02328 31.2224C1.32928 30 0.0496216 28.3022 0.0496216 25.9932C0.0496216 22.5976 3.01303 20.4244 7.66019 20.4244C9.2766 20.4244 11.2971 20.6961 12.9135 21.1036Z" fill="#00A2B2"/>
<path fill-rule="evenodd" clip-rule="evenodd" d="M16.9543 20.7641H22.4097V39.1681H16.9543V20.7641Z" fill="#00A2B2"/>
<path fill-rule="evenodd" clip-rule="evenodd" d="M40.1222 20.7641V24.1596H31.9055V28.3022H39.112V31.3583H31.9055V35.6367H40.2569V39.1681H26.5848V20.7641H40.1222Z" fill="#00A2B2"/>
<path fill-rule="evenodd" clip-rule="evenodd" d="M65.9169 20.7641V39.1681H60.5963V27.0798L55.4777 39.3039H52.1101L46.9915 27.0798V39.1681H43.3546V20.7641H50.0223L54.6694 31.9695L59.384 20.7641H65.9169Z" fill="#00A2B2"/>
<path fill-rule="evenodd" clip-rule="evenodd" d="M83.6312 20.7641V24.1596H75.4145V28.3022H82.621V31.3583H75.4145V35.6367H83.7659V39.1681H70.0938V20.7641H83.6312Z" fill="#00A2B2"/>
<path fill-rule="evenodd" clip-rule="evenodd" d="M102.825 20.7641V39.1681H97.0331L90.5001 27.3515V39.1681H86.8632V20.7641H92.79L99.2557 32.4448V20.7641H102.825Z" fill="#00A2B2"/>
<path fill-rule="evenodd" clip-rule="evenodd" d="M118.653 21.1036V24.635C116.969 24.0238 115.151 23.6842 113.736 23.6842C111.918 23.6842 110.908 24.2275 110.908 25.2462C110.908 25.9253 111.312 26.2649 112.592 26.8761L115.959 28.3701C118.653 29.5925 120 31.3582 120 33.7351C120 37.2665 116.902 39.5755 112.053 39.5755C110.302 39.5755 108.214 39.3039 106.059 38.8285V35.1613C108.214 35.7725 110.167 36.0441 111.716 36.0441C113.736 36.0441 114.814 35.5008 114.814 34.4822C114.814 33.8031 114.41 33.3956 113.4 32.9202L109.695 31.2903C106.934 30.0679 105.722 28.4381 105.722 26.0612C105.722 22.6656 108.685 20.4924 113.332 20.4924C115.016 20.4245 117.037 20.6961 118.653 21.1036Z" fill="#00A2B2"/>
</g>
<defs>
<clipPath id="clip0">
<rect width="120" height="60" fill="white"/>
</clipPath>
</defs>
</svg>
