<svg width="159" height="60" viewBox="0 0 159 60" fill="none" xmlns="http://www.w3.org/2000/svg">
<path fill-rule="evenodd" clip-rule="evenodd" d="M98.0115 24.2682L98.0068 24.2654C98.0068 24.2654 98.0045 24.2635 98.0014 24.2635C97.8939 24.2167 97.7759 24.1923 97.6624 24.1923C97.4788 24.1936 97.3027 24.2483 97.149 24.3441C96.9923 24.443 96.8599 24.5872 96.7838 24.7676V24.772L93.1982 34.5546L90.4347 27.9976L90.4305 27.9948C90.3529 27.8114 90.2136 27.6698 90.0557 27.5712C89.8963 27.4723 89.7124 27.4179 89.5189 27.4179C89.3308 27.4179 89.1555 27.4767 89.0007 27.5725C88.8482 27.6711 88.7106 27.8114 88.6332 27.9948L88.6314 27.9976L85.8624 34.5587L82.2576 24.7806H82.2547C82.1919 24.5916 82.0638 24.4443 81.9116 24.3469C81.7568 24.2483 81.5758 24.1936 81.3891 24.1923C81.2701 24.1923 81.1496 24.2167 81.0358 24.2635H81.0304L81.0262 24.2682C80.6901 24.4243 80.4849 24.7591 80.4836 25.1239C80.4836 25.2386 80.5065 25.3528 80.5506 25.4659H80.5496L84.9837 37.3351V37.3392C85.0183 37.4278 85.0668 37.5153 85.1388 37.6012C85.1905 37.6626 85.2668 37.7144 85.3455 37.7574C85.3601 37.7713 85.3829 37.7913 85.4172 37.8128C85.4543 37.8358 85.5021 37.8519 85.5507 37.8602C85.6297 37.8863 85.7346 37.9244 85.8751 37.9244C86.0546 37.9244 86.2211 37.8602 86.3704 37.7644C86.5099 37.6714 86.6346 37.5324 86.7034 37.3522L86.7148 37.3436L89.5189 30.6618L92.3266 37.3164H92.3294C92.3941 37.4938 92.5078 37.6328 92.6395 37.7315C92.779 37.8358 92.9351 37.9003 93.1005 37.9244H93.2182C93.3304 37.9244 93.4392 37.9031 93.5309 37.8674C93.6273 37.8304 93.7049 37.7814 93.7693 37.733C93.92 37.6183 94.0364 37.4609 94.1083 37.2861V37.2823L98.5141 25.4659C98.5572 25.3528 98.5798 25.2399 98.5798 25.1257C98.5788 24.7635 98.3645 24.4186 98.0115 24.2682ZM77.7414 31.0442C77.7414 29.6505 77.2045 28.388 76.3505 27.4767C75.4919 26.5635 74.3291 26.0053 73.066 26.0053C71.8024 26.0053 70.637 26.5635 69.7799 27.4767C68.9241 28.388 68.3872 29.6505 68.3872 31.0442C68.3872 32.4367 68.9241 33.6872 69.7799 34.5929C70.637 35.502 71.8024 36.0514 73.066 36.0514C74.3291 36.0514 75.496 35.502 76.3505 34.5929C77.2045 33.6872 77.7414 32.4367 77.7414 31.0442ZM77.717 26.2057C78.9029 27.4593 79.6234 29.1795 79.6263 31.0442C79.6234 32.9089 78.9029 34.6274 77.717 35.8813C76.5402 37.1331 74.8963 37.9246 73.0689 37.9246C71.2554 37.9246 69.609 37.1331 68.4277 35.8813C67.2447 34.6274 66.5125 32.9089 66.5125 31.0442C66.5125 29.1795 67.2447 27.4593 68.4277 26.2057C69.609 24.9548 71.2554 24.1636 73.0689 24.1636C74.8963 24.1636 76.5402 24.9548 77.717 26.2057ZM59.0476 24.1879C57.5775 24.1879 56.2355 24.7591 55.2335 25.6705V25.1257C55.2319 24.8751 55.1387 24.6416 54.9748 24.4699C54.8158 24.3011 54.58 24.1879 54.3218 24.1879C54.0545 24.1879 53.8135 24.2951 53.6457 24.4683C53.4805 24.6387 53.3816 24.8751 53.3816 25.1257V37.2709L53.4203 37.3092L53.4218 37.3151C53.432 37.3553 53.4574 37.3995 53.4847 37.4423C53.6125 37.667 53.8221 37.8374 54.0818 37.913L54.1192 37.9246H54.3218C54.4569 37.9246 54.593 37.8961 54.7223 37.8358C54.8301 37.7843 54.9303 37.7014 55.0109 37.5955L55.0137 37.5968C55.0236 37.587 55.0267 37.5741 55.0381 37.5642C55.0426 37.5627 55.0467 37.5583 55.0496 37.5539C55.0997 37.4896 55.1415 37.4239 55.1675 37.3623C55.1948 37.2892 55.2119 37.2204 55.2249 37.1676L55.2335 37.1331V29.8406C55.2607 28.7974 55.6914 27.8544 56.382 27.1688C57.0679 26.4837 58.0081 26.0599 59.0476 26.0599C60.1044 26.0599 61.0473 26.4837 61.7306 27.1688C62.4168 27.8518 62.8332 28.7932 62.8332 29.8307V36.9918C62.8332 37.2533 62.9451 37.4953 63.1147 37.6613C63.2882 37.827 63.5251 37.9246 63.7721 37.9246C64.0232 37.9246 64.2588 37.827 64.431 37.6613C64.6061 37.4953 64.7123 37.2533 64.7123 36.9918V29.8307C64.7123 26.7398 62.1799 24.1923 59.0476 24.1879ZM151.588 29.716C151.054 27.5567 149.152 26.0182 146.981 26.0226C144.756 26.0226 142.88 27.5282 142.299 29.716H151.588ZM153.645 30.6007V30.6934C153.645 30.9526 153.529 31.1859 153.352 31.3391C153.177 31.4935 152.949 31.5737 152.703 31.5766H142.168C142.436 34.1393 144.489 36.0317 146.939 36.0514H147.561C148.372 36.0542 149.162 35.7751 149.857 35.313C150.553 34.8552 151.154 34.2154 151.578 33.5112C151.665 33.361 151.79 33.2466 151.926 33.1764C152.066 33.1005 152.215 33.0661 152.366 33.0661C152.532 33.0661 152.697 33.1091 152.842 33.1963L152.852 33.2007L152.864 33.2093C153.128 33.4024 153.294 33.6973 153.294 34.021C153.294 34.1854 153.25 34.3529 153.16 34.5044L153.157 34.5103L153.154 34.5129C152.565 35.4463 151.763 36.2976 150.81 36.9146C149.855 37.5326 148.748 37.9246 147.561 37.9246H146.929C145.081 37.9117 143.409 37.1331 142.205 35.8883C141.003 34.6476 140.263 32.9431 140.263 31.0701C140.263 29.1653 141.009 27.4365 142.221 26.1857C143.433 24.9365 145.116 24.1636 146.981 24.1636C148.761 24.1636 150.36 24.8691 151.545 26.0242C152.729 27.1789 153.503 28.7829 153.641 30.5875L153.645 30.6007ZM110.43 18.511C110.174 18.511 109.938 18.6184 109.769 18.7872C109.599 18.9548 109.492 19.1909 109.492 19.447V36.9918C109.492 37.2478 109.599 37.4824 109.769 37.6486C109.938 37.8143 110.174 37.9246 110.43 37.9246C110.963 37.9246 111.394 37.5067 111.397 36.9918V19.447C111.394 18.9304 110.963 18.511 110.43 18.511ZM49.0376 30.7092C48.2794 30.3529 47.4195 30.0896 46.5613 29.8064C45.7717 29.5402 44.9705 29.3139 44.3991 29.0164C44.1121 28.8631 43.8882 28.7016 43.7433 28.5198C43.5952 28.3383 43.5235 28.1535 43.5191 27.9015C43.5207 27.5567 43.6212 27.2791 43.7905 27.0329C44.0474 26.6652 44.478 26.3789 44.9489 26.194C45.4141 26.0086 45.918 25.9211 46.2782 25.9211C47.3434 25.9227 48.0168 26.2761 48.5337 26.6422C48.789 26.827 49.0046 27.0142 49.2085 27.1688C49.3132 27.2491 49.4108 27.3221 49.5243 27.3762C49.6316 27.4293 49.7581 27.4723 49.896 27.4723C49.9835 27.4723 50.0713 27.4565 50.1513 27.4223C50.236 27.3881 50.3095 27.3392 50.3799 27.2791C50.4487 27.2149 50.5077 27.1375 50.5492 27.0515C50.5866 26.9627 50.6038 26.8713 50.6038 26.7812C50.6038 26.615 50.5505 26.4591 50.4744 26.3128C50.3323 26.0555 50.1139 25.8095 49.8357 25.5633C49.4223 25.1969 48.8768 24.8477 48.2896 24.5846C47.7008 24.3213 47.0694 24.1421 46.4678 24.1421C45.0738 24.1421 43.9097 24.457 43.0641 25.0369C42.6233 25.3401 42.2358 25.672 41.9618 26.1301C41.6831 26.5894 41.528 27.1561 41.508 27.893C41.5067 27.9259 41.5067 27.9588 41.5067 27.9916C41.5039 28.7073 41.7348 29.2971 42.0979 29.759C42.6493 30.4547 43.4677 30.871 44.2702 31.1659C45.0713 31.4606 45.872 31.6366 46.3774 31.8054C47.0894 32.0416 47.846 32.2976 48.3971 32.6368C48.6716 32.81 48.894 32.9962 49.0449 33.2007C49.1914 33.4112 49.2742 33.6285 49.2773 33.9034V33.9236C49.2758 34.3213 49.1584 34.6333 48.9643 34.9008C48.6716 35.2987 48.1849 35.5905 47.6678 35.7751C47.1527 35.9556 46.6172 36.0317 46.2725 36.0317C45.0567 36.0317 44.243 35.7394 43.6529 35.4463C43.357 35.2987 43.1173 35.1527 42.9004 35.0294C42.7929 34.9709 42.6924 34.9166 42.5862 34.8736C42.4828 34.8309 42.3724 34.8032 42.2475 34.8032C42.1714 34.8032 42.0883 34.8164 42.0119 34.8461C41.9345 34.8793 41.8641 34.9251 41.8051 34.9808C41.7233 35.06 41.6516 35.1483 41.6015 35.25C41.5527 35.3518 41.528 35.459 41.528 35.5706C41.528 35.7539 41.5968 35.9214 41.6948 36.0729C41.8483 36.2917 42.0737 36.4879 42.355 36.6839C42.6449 36.8771 42.9911 37.0676 43.39 37.2551C44.2744 37.6714 45.4084 37.8889 46.2699 37.9031H46.2725C47.6122 37.9031 48.769 37.5955 49.7438 36.8802V36.8784H49.7451C50.6983 36.163 51.2913 35.0996 51.2913 33.899C51.2913 33.2393 51.1362 32.6798 50.8651 32.222C50.456 31.5279 49.7911 31.0701 49.0376 30.7092ZM124.588 31.0442C124.588 29.6373 124.055 28.3766 123.204 27.4668C122.354 26.5593 121.187 26.0086 119.911 26.0055C118.644 26.0055 117.482 26.5593 116.623 27.4668C115.771 28.3766 115.231 29.6373 115.231 31.0442C115.231 32.4496 115.771 33.702 116.623 34.6046C117.478 35.5077 118.644 36.0514 119.911 36.0514C121.19 36.0514 122.357 35.5077 123.207 34.6077C124.055 33.702 124.588 32.4509 124.588 31.0442ZM126.184 24.4243C126.358 24.5916 126.465 24.8337 126.465 25.0952V36.9918C126.465 37.2478 126.355 37.4824 126.19 37.6486C126.02 37.8143 125.787 37.9246 125.528 37.9246C125.27 37.9246 125.033 37.8143 124.866 37.6486C124.697 37.4824 124.588 37.2478 124.588 36.9918V35.831C123.406 37.1034 121.747 37.9246 119.911 37.9246C118.083 37.9246 116.438 37.1419 115.259 35.8883C114.077 34.6406 113.353 32.9216 113.353 31.0442C113.353 29.1669 114.077 27.4464 115.259 26.1974C116.438 24.945 118.083 24.1636 119.911 24.1636C121.746 24.1636 123.406 24.9611 124.588 26.2271V25.0952C124.588 24.8337 124.696 24.5916 124.869 24.4243C125.043 24.2597 125.277 24.1636 125.528 24.1636C125.776 24.1636 126.014 24.2597 126.184 24.4243ZM139.439 25.6306C139.625 25.446 139.727 25.2011 139.727 24.9579C139.727 24.719 139.625 24.4797 139.437 24.3065H139.439C139.437 24.3011 139.433 24.3011 139.433 24.3011C139.432 24.2967 139.429 24.2951 139.429 24.2951H139.426C139.245 24.1178 139.012 24.0204 138.773 24.0204C138.53 24.0204 138.293 24.1211 138.112 24.3011L130.772 31.4321V19.447C130.772 18.9304 130.339 18.511 129.806 18.511C129.549 18.511 129.314 18.6184 129.146 18.7872C128.979 18.9548 128.867 19.1909 128.867 19.447V36.9918C128.867 37.2478 128.979 37.4824 129.146 37.6486C129.314 37.8143 129.549 37.9246 129.806 37.9246C130.339 37.9246 130.772 37.5067 130.772 36.9918V34.0966L133.162 31.7169L138.035 37.5769C138.127 37.7115 138.252 37.8042 138.375 37.8532C138.516 37.9062 138.652 37.9246 138.774 37.9246C138.942 37.9246 139.179 37.8889 139.387 37.7258L139.399 37.7188L139.411 37.7056C139.606 37.514 139.717 37.2592 139.717 36.9987C139.717 36.7797 139.636 36.5565 139.485 36.3779V36.375L134.525 30.3643L139.434 25.6306H139.439ZM106.557 18.5527H106.348C106.32 18.5527 106.293 18.5555 106.264 18.5566C106.239 18.5555 106.211 18.5527 106.184 18.5527C105.643 18.5527 105.117 18.614 104.626 18.7772C104.142 18.9374 103.696 19.2023 103.35 19.6044L103.349 19.6028L103.348 19.6044V19.6057C102.99 20.0021 102.754 20.4759 102.611 21.0142C102.467 21.555 102.408 22.1645 102.403 22.8571V24.1983H100.92C100.405 24.2011 99.9955 24.6118 99.9955 25.1084C99.9927 25.3758 100.097 25.6221 100.267 25.7997C100.438 25.9742 100.671 26.0886 100.931 26.1029H102.403V37.0145L102.401 37.0402C102.401 37.2962 102.509 37.5324 102.683 37.7014C102.855 37.8674 103.096 37.9661 103.359 37.9661C103.859 37.9635 104.269 37.557 104.27 37.0402V26.1029H105.865C106.122 26.0886 106.359 25.9812 106.529 25.808C106.702 25.635 106.809 25.3919 106.809 25.1283V25.0928C106.803 24.6017 106.391 24.1983 105.875 24.1983H104.27V22.8628C104.281 22.272 104.342 21.8297 104.431 21.5079C104.517 21.1843 104.635 20.981 104.741 20.8552C104.845 20.7436 104.98 20.6504 105.199 20.5758C105.42 20.5046 105.726 20.4588 106.14 20.4588H106.188C106.213 20.4588 106.239 20.4544 106.262 20.4544C106.29 20.4544 106.317 20.4588 106.348 20.4588H106.468H106.557C107.087 20.4588 107.513 20.0324 107.513 19.5055C107.513 18.9791 107.087 18.5527 106.557 18.5527ZM12.0074 31.6636C12.0835 31.4246 12.1151 31.1784 12.1094 30.9352C12.1006 30.7592 12.0777 30.5834 12.0276 30.4073C11.8767 29.8607 11.5193 29.3724 10.9838 29.0646L3.36665 24.6801C2.29137 24.0631 0.920512 24.43 0.303394 25.5004C-0.319699 26.5692 0.0478193 27.9342 1.1231 28.5527L5.37956 31.0067L1.1231 33.454C0.0478193 34.0735 -0.3184 35.4388 0.303394 36.512C0.920512 37.5795 2.29137 37.9446 3.36665 37.3276L10.9838 32.9403C11.4978 32.6454 11.8466 32.1829 12.0074 31.6636ZM14.0745 35.7723C13.6369 35.735 13.1819 35.8266 12.7725 36.0643L5.1497 40.4459C4.07727 41.0642 3.71105 42.4365 4.32999 43.5071C4.95178 44.5748 6.32134 44.9425 7.39221 44.3214L11.6629 41.8656V46.7728C11.6629 48.0091 12.6663 49.0108 13.9081 49.0108C15.1439 49.0108 16.1503 48.0091 16.1503 46.7728V38.0002C16.1503 36.8224 15.2345 35.8551 14.0745 35.7723ZM21.881 26.2383C22.3173 26.2743 22.7711 26.1813 23.1804 25.9465L30.8017 21.5607C31.8757 20.9422 32.2401 19.5756 31.6227 18.5022C31.004 17.4336 29.6332 17.067 28.5607 17.6851L24.2928 20.1437V15.2349C24.2928 14.002 23.2895 13 22.0477 13C20.806 13 19.8052 14.002 19.8052 15.2349V24.0075C19.8052 25.184 20.7184 26.1528 21.881 26.2383ZM5.1497 21.5607L12.7725 25.9465C13.1819 26.1813 13.6369 26.2743 14.0745 26.2383C15.2345 26.1528 16.1503 25.184 16.1503 24.0075V15.2349C16.1503 14.002 15.1439 13 13.9081 13C12.6663 13 11.6629 14.002 11.6629 15.2349V20.1437L7.39221 17.6851C6.32134 17.067 4.95178 17.4336 4.32999 18.5022C3.71105 19.5756 4.07727 20.9422 5.1497 21.5607ZM19.4751 30.9883C19.4751 30.8609 19.3977 30.6833 19.3073 30.5891L18.39 29.6787C18.2996 29.5889 18.1214 29.5143 17.9934 29.5143H17.9578C17.83 29.5143 17.6521 29.5889 17.563 29.6787L16.6456 30.5891C16.5537 30.6833 16.4833 30.8609 16.4833 30.9883V31.024C16.4833 31.1499 16.5537 31.3259 16.6456 31.4176L17.563 32.3305C17.6534 32.4206 17.83 32.4949 17.9578 32.4949H17.9934C18.1214 32.4949 18.2996 32.4206 18.39 32.3305L19.3073 31.4176C19.3977 31.3259 19.4751 31.1499 19.4751 31.024V30.9883ZM22.0075 31.864L18.8393 35.0183C18.7486 35.111 18.5736 35.1869 18.4416 35.1869H18.2118H17.7437H17.51C17.3819 35.1869 17.204 35.111 17.1121 35.0183L13.9455 31.864C13.8548 31.7752 13.7816 31.5965 13.7816 31.4704V31.2371V30.7706V30.5404C13.7816 30.4115 13.8548 30.2325 13.9455 30.1424L17.1121 26.9884C17.204 26.8954 17.3819 26.8224 17.51 26.8224H17.7437H18.2118H18.4416C18.5707 26.8224 18.7486 26.8954 18.8393 26.9884L22.0075 30.1424C22.0979 30.2325 22.1711 30.4115 22.1711 30.5404V30.7706V31.2371V31.4704C22.1711 31.5965 22.0979 31.7752 22.0075 31.864ZM30.8017 40.4459L23.1804 36.0643C22.7711 35.8266 22.3173 35.735 21.881 35.7723C20.7184 35.8551 19.8052 36.8224 19.8052 38.0002V46.7728C19.8052 48.0091 20.806 49.0108 22.0477 49.0108C23.2895 49.0108 24.2928 48.0091 24.2928 46.7728V41.8656L28.5607 44.3214C29.6329 44.9425 31.004 44.5748 31.6227 43.5071C32.2401 42.4365 31.8757 41.0642 30.8017 40.4459ZM34.8314 28.5527L30.5747 31.0067L34.8314 33.454C35.9064 34.0735 36.2739 35.4388 35.6524 36.512C35.0322 37.5795 33.66 37.9446 32.5889 37.3276L24.9661 32.9403C24.4578 32.6454 24.1048 32.1829 23.9482 31.6636C23.8736 31.4246 23.8391 31.1784 23.8477 30.9352C23.8521 30.7592 23.8778 30.5834 23.9266 30.4073C24.0791 29.8607 24.4365 29.3727 24.9661 29.0646L32.5889 24.6801C33.66 24.0631 35.0322 24.43 35.6524 25.5004C36.2739 26.5692 35.9064 27.9342 34.8314 28.5527ZM158.445 24.176C158.445 25.4061 157.619 26.4327 156.239 26.4327C154.869 26.4327 154.053 25.3963 154.053 24.176C154.053 22.9459 154.869 21.9191 156.239 21.9191C157.619 21.9191 158.445 22.9459 158.445 24.176ZM158.008 24.176C158.008 23.13 157.308 22.3354 156.239 22.3354C155.19 22.3354 154.49 23.0909 154.49 24.176C154.49 25.2122 155.19 26.0161 156.239 26.0161C157.308 26.0161 158.008 25.222 158.008 24.176ZM155.374 23.1588H156.317C156.832 23.1588 157.172 23.4397 157.172 23.8754C157.172 24.1468 157.036 24.35 156.832 24.4761L157.201 25.0087V25.1154H156.667L156.307 24.6019H155.89V25.1154H155.374V23.1588ZM156.307 23.6336H155.89V24.1468H156.307C156.501 24.1468 156.628 24.0595 156.628 23.8951C156.628 23.7206 156.511 23.6336 156.307 23.6336Z" fill="#29B5E8"/>
</svg>
