<svg width="94" height="60" viewBox="0 0 94 60" fill="none" xmlns="http://www.w3.org/2000/svg">
<g clip-path="url(#clip0_1471_6674)">
<path d="M85.3342 20.1871C84.4446 20.6486 83.4525 20.8715 82.4531 20.8344C81.4536 20.7973 80.4804 20.5014 79.6269 19.9752C78.7733 19.449 78.0681 18.7101 77.5789 17.8294C77.0897 16.9487 76.8329 15.9559 76.8332 14.9462V8.89218C76.8337 7.84893 76.5746 6.82228 76.0796 5.90653C75.5846 4.99078 74.8696 4.21529 74.0002 3.6513C74.8898 3.18979 75.8819 2.96689 76.8813 3.00399C77.8808 3.0411 78.854 3.33696 79.7075 3.86319C80.5611 4.38941 81.2663 5.12832 81.7556 6.00898C82.2448 6.88964 82.5015 7.88248 82.5012 8.89218V14.9482C82.4989 15.766 82.6571 16.5762 82.9666 17.332C83.276 18.0878 83.7307 18.7742 84.3044 19.3517C84.6164 19.6672 84.9618 19.9474 85.3342 20.1871Z" fill="#FF671F"/>
<path d="M74.6632 14.7803H70.6561C69.7725 14.7818 68.9 14.5807 68.1046 14.192C67.3092 13.8034 66.6117 13.2374 66.0646 12.5368C65.5175 11.8363 65.1352 11.0194 64.9466 10.1478C64.7579 9.27628 64.7678 8.37285 64.9755 7.50573C65.1832 6.6386 65.5832 5.83044 66.1455 5.14222C66.7078 4.45401 67.4175 3.90373 68.2212 3.53292C69.0249 3.16211 69.9016 2.98046 70.785 3.00166C71.6684 3.02287 72.5355 3.24639 73.3208 3.65536C72.9495 3.89565 72.6055 4.17647 72.295 4.49276C71.556 5.24059 71.0176 6.16596 70.7305 7.18179C70.4434 8.19761 70.417 9.27048 70.6539 10.2994C70.8908 11.3284 71.383 12.2795 72.0844 13.0634C72.7858 13.8473 73.6732 14.4382 74.6632 14.7803V14.7803Z" fill="#FF9E1B"/>
<path d="M94.4999 14.9462C94.4991 15.9555 94.2416 16.9476 93.7521 17.8277C93.2626 18.7077 92.5575 19.446 91.7043 19.972C90.8511 20.498 89.8784 20.794 88.8794 20.8317C87.8804 20.8693 86.8886 20.6474 85.9989 20.1871C86.3707 19.9466 86.7154 19.6658 87.0267 19.3497C87.7658 18.6021 88.3045 17.6771 88.5922 16.6616C88.8799 15.6461 88.9071 14.5735 88.6713 13.5444C88.4355 12.5154 87.9445 11.5637 87.2443 10.779C86.5441 9.99417 85.6578 9.40199 84.6686 9.05806H88.6756C90.2204 9.06234 91.7006 9.68433 92.7921 10.7879C93.8837 11.8914 94.4978 13.3866 94.4999 14.9462V14.9462Z" fill="#EB3300"/>
<path d="M36.7506 36.3426H37.4198V40.6712H43.1138V36.3426H43.783V45.8089H43.1138V41.3569H37.4198V45.8191H36.7506V36.3426Z" fill="#EB3300"/>
<path d="M46.2032 42.8436C46.2391 43.5069 46.5206 44.1323 46.992 44.5958C47.4633 45.0593 48.0899 45.3269 48.7476 45.3457C49.1679 45.3373 49.5804 45.2302 49.9525 45.0329C50.3245 44.8356 50.646 44.5535 50.8914 44.209L51.2921 44.6014C51.0017 45.0114 50.6204 45.3473 50.1786 45.5822C49.7369 45.8172 49.2468 45.9447 48.7476 45.9546C47.0727 45.9546 45.6001 44.4679 45.6001 42.5726C45.6001 40.6773 47.0747 39.1906 48.6815 39.1906C50.2883 39.1906 51.6287 40.5438 51.6287 42.5726V42.8436H46.2032ZM46.2032 42.2368H51.0256C50.9595 40.8209 49.9538 39.8096 48.6815 39.8096C47.4093 39.8096 46.2713 40.9504 46.2032 42.2348V42.2368Z" fill="#EB3300"/>
<path d="M57.5912 41.7614C57.5912 40.6388 56.8139 39.8014 55.7881 39.8014C55.4264 39.8137 55.0717 39.9046 54.748 40.068C54.4244 40.2314 54.1395 40.4633 53.9128 40.7481L53.5121 40.3435C53.5121 40.3435 54.3435 39.1946 55.7901 39.1946C57.1705 39.1946 58.1943 40.3172 58.1943 41.7635V45.8211H57.5932V44.7369C57.3299 45.1166 56.9788 45.4256 56.5702 45.6371C56.1617 45.8487 55.7082 45.9562 55.2491 45.9505C53.9769 45.9505 53.1053 45.0706 53.1053 44.1301C53.1053 43.1187 53.8426 42.3581 55.0468 42.17L57.5912 41.7614ZM57.5912 42.9751V42.3683L55.187 42.7728C54.1852 42.9346 53.7124 43.4484 53.7124 44.126C53.7124 44.7328 54.3135 45.3396 55.2531 45.3396C55.562 45.3463 55.8689 45.2897 56.1556 45.1734C56.4422 45.0572 56.7026 44.8835 56.921 44.663C57.1395 44.4425 57.3114 44.1796 57.4266 43.8902C57.5418 43.6008 57.5978 43.2909 57.5912 42.9791V42.9751Z" fill="#EB3300"/>
<path d="M61.0472 45.8191H60.4462V36.3426H61.0472V45.8089V45.8191Z" fill="#EB3300"/>
<path d="M63.9665 37.1638H64.5015V39.3281H65.9761V39.935H64.5015V44.1948C64.5015 44.9392 64.9022 45.3437 65.5032 45.3437C65.8045 45.3378 66.1012 45.269 66.3748 45.1414V45.7483C66.1012 45.8758 65.8045 45.9446 65.5032 45.9505C64.5015 45.9505 63.9004 45.3437 63.9004 44.1928V39.935H62.6282V39.3281H63.4997C63.5669 39.3275 63.6331 39.3126 63.6941 39.2843C63.7552 39.256 63.8096 39.215 63.8539 39.164C63.8981 39.1131 63.9312 39.0532 63.951 38.9884C63.9707 38.9236 63.9767 38.8554 63.9685 38.7881V37.1699L63.9665 37.1638Z" fill="#EB3300"/>
<path d="M68.6887 40.477C68.9049 40.0802 69.2245 39.7507 69.613 39.5242C70.0016 39.2978 70.4441 39.1831 70.8926 39.1926C72.3672 39.1926 73.4972 40.3415 73.4972 41.9658V45.8211H72.8961V41.9637C72.8961 40.6793 72.0246 39.7994 70.8926 39.7994C69.6905 39.7994 68.6887 40.8108 68.6887 42.166V45.817H68.0876V36.3426H68.6887V40.4669V40.477Z" fill="#EB3300"/>
<path d="M0.569001 21.158C0.569001 18.5992 2.75685 16.3904 6.21293 16.3904C9.78321 16.3904 11.5102 18.5992 11.5102 18.5992L9.44662 20.8101C9.44662 20.8101 8.29459 19.4144 6.45135 19.4144C5.06892 19.4144 4.2635 20.2235 4.2635 21.158C4.2635 24.1799 12.2095 22.4363 12.2095 28.2497C12.2095 31.1563 10.0216 33.3651 6.10474 33.3651C2.07365 33.3651 0 30.6911 0 30.6911L2.07365 28.5976C2.55222 29.1406 3.13826 29.5764 3.79393 29.8767C4.44961 30.177 5.16037 30.3353 5.88035 30.3412C7.60738 30.3412 8.52901 29.4107 8.52901 28.2476C8.525 25.2277 0.569001 26.9733 0.569001 21.158Z" fill="#EB3300"/>
<path d="M17.1157 32.9039L12.74 21.6252H15.9657L18.6143 29.1821L21.0045 22.3858C21.0819 22.1656 21.225 21.975 21.4141 21.8403C21.6032 21.7055 21.829 21.6332 22.0604 21.6333H24.4927L20.0028 33.713C18.9669 36.5044 17.5845 37.898 15.6271 37.898C14.9588 37.904 14.2952 37.7854 13.6696 37.5481V34.7568C14.0331 34.9155 14.4257 34.9948 14.8217 34.9894C15.2387 35.0061 15.6506 34.8922 16.001 34.6634C16.3515 34.4345 16.6232 34.1019 16.7791 33.711L17.1157 32.9039Z" fill="#EB3300"/>
<path d="M29.1629 23.0189C29.1629 23.0189 30.315 21.4007 32.3886 21.4007C34.9231 21.4007 36.7643 23.2616 36.7643 26.4009V33.0294H34.7748C34.4778 33.0294 34.1929 32.9102 33.9829 32.6982C33.7728 32.4861 33.6548 32.1985 33.6548 31.8986V26.7407C33.6548 25.345 32.7332 24.4146 31.467 24.4146C30.0846 24.4146 29.1629 25.345 29.1629 27.0886V33.0192H26.0535V21.6232H29.1629V23.0189Z" fill="#EB3300"/>
<path d="M41.7493 28.367C41.9797 29.5301 43.0155 30.5758 44.7446 30.5758C45.5418 30.5757 46.32 30.3294 46.9745 29.8699C47.209 29.7129 47.4938 29.6518 47.7712 29.6987C48.0487 29.7456 48.2981 29.8972 48.4691 30.1227L49.3487 31.2656C48.7127 31.9025 47.9576 32.4052 47.1272 32.7445C46.2968 33.0838 45.4079 33.2528 44.5122 33.2418C40.7255 33.2418 37.8264 29.8031 38.6699 25.9782C38.9615 24.6586 39.6957 23.4812 40.7483 22.6452C41.8008 21.8093 43.1071 21.3661 44.4461 21.3906C47.6517 21.4169 50.0379 23.8502 50.0379 27.0866C50.0466 27.5157 50.0083 27.9444 49.9237 28.365H41.7493V28.367ZM41.7493 26.1582H46.9324C46.8289 25.5604 46.5159 25.0201 46.0507 24.6358C45.5854 24.2515 44.9989 24.0488 44.398 24.0647C43.0155 24.0647 42.0939 24.9951 41.7493 26.1582Z" fill="#EB3300"/>
<path d="M57.6113 33.2518C54.3857 33.2518 51.6228 30.4605 51.6228 27.3212C51.6228 24.182 54.3877 21.3906 57.6113 21.3906C60.835 21.3906 63.5999 24.1799 63.5999 27.3212C63.5999 30.4625 60.835 33.2518 57.6113 33.2518ZM57.6113 30.3452C59.108 30.3452 60.3762 29.0668 60.3762 27.3212C60.3762 25.5756 59.11 24.2972 57.6113 24.2972C56.1127 24.2972 54.8465 25.5756 54.8465 27.3212C54.8465 29.0668 56.1147 30.3452 57.6113 30.3452Z" fill="#EB3300"/>
<path d="M71.6681 24.9951C71.6681 24.9951 70.9769 24.0646 69.8248 24.0646C68.9032 24.0646 68.4424 24.5299 68.4424 24.9951C68.4424 26.6133 73.6255 25.8042 73.6255 29.6474C73.6255 31.6236 72.0227 33.2518 69.1336 33.2518C65.9079 33.2518 64.5255 31.1583 64.5255 31.1583L66.2525 29.4147C66.2525 29.4147 67.1742 30.6931 68.6708 30.6931C69.7066 30.6931 70.1674 30.2279 70.1674 29.6474C70.1674 27.9038 64.9843 28.7634 64.9843 24.9951C64.9843 23.2515 66.8276 21.3906 69.36 21.3906C72.0087 21.3906 73.2749 23.1342 73.2749 23.1342L71.6681 24.9951Z" fill="#EB3300"/>
<path d="M75.9877 30.5879C76.1677 30.5927 76.3424 30.651 76.4898 30.7555C76.6372 30.86 76.7508 31.0061 76.8164 31.1755C76.882 31.3449 76.8966 31.5301 76.8584 31.7078C76.8203 31.8855 76.731 32.048 76.6019 32.1747C76.4727 32.3015 76.3094 32.387 76.1323 32.4205C75.9553 32.454 75.7724 32.4341 75.6065 32.3632C75.4406 32.2922 75.2992 32.1735 75.1998 32.0218C75.1005 31.8701 75.0477 31.6921 75.048 31.5103C75.0471 31.3867 75.071 31.2641 75.1183 31.1501C75.1655 31.0361 75.2351 30.9328 75.3229 30.8467C75.4107 30.7605 75.5148 30.6932 75.6291 30.6487C75.7433 30.6042 75.8653 30.5835 75.9877 30.5879V30.5879ZM75.9877 32.2385C76.131 32.2445 76.2728 32.2072 76.3949 32.1312C76.517 32.0553 76.6139 31.9442 76.673 31.8123C76.7321 31.6804 76.7508 31.5336 76.7267 31.3909C76.7026 31.2482 76.6368 31.116 76.5377 31.0113C76.4386 30.9066 76.3108 30.8342 76.1707 30.8034C76.0305 30.7726 75.8845 30.7848 75.7512 30.8384C75.618 30.8921 75.5037 30.9847 75.423 31.1044C75.3424 31.2241 75.299 31.3655 75.2984 31.5103C75.2949 31.6041 75.3102 31.6977 75.3432 31.7855C75.3761 31.8734 75.4263 31.9536 75.4905 32.0215C75.5548 32.0894 75.6319 32.1436 75.7173 32.1809C75.8027 32.2181 75.8946 32.2377 75.9877 32.2385V32.2385ZM75.623 30.9904H76.0097C76.2661 30.9904 76.4104 31.0713 76.4104 31.2979C76.413 31.3344 76.4079 31.3711 76.3954 31.4055C76.3829 31.4399 76.3633 31.4713 76.3379 31.4974C76.3126 31.5236 76.282 31.5441 76.2482 31.5575C76.2144 31.5708 76.1782 31.5768 76.1419 31.575L76.4164 32.0281H76.202L75.9516 31.5851H75.8234V32.0281H75.623V30.9925V30.9904ZM75.8234 31.4233H76.0037C76.1179 31.4233 76.204 31.4051 76.204 31.2797C76.204 31.1543 76.0858 31.1502 75.9937 31.1502H75.8234V31.4213V31.4233Z" fill="#EB3300"/>
</g>
<defs>
<clipPath id="clip0_1471_6674">
<rect width="94" height="60" fill="white"/>
</clipPath>
</defs>
</svg>
